<svg xmlns="http://www.w3.org/2000/svg" xmlns:xlink="http://www.w3.org/1999/xlink"><polygon points="0,200 1,100 2,99 3,100 4,101 5,102 6,103 7,104 8,105 9,104 10,105 11,104 12,103 13,104 14,105 15,106 16,107 17,106 18,107 19,108 20,107 21,106 22,105 23,104 24,105 25,104 26,103 27,102 28,101 29,100 30,101 31,102 32,103 33,104 34,103 35,102 36,101 37,100 38,101 39,102 40,101 41,100 42,101 43,100 44,101 45,102 46,103 47,104 48,103 49,104 50,103 51,102 52,101 53,100 54,99 55,100 56,99 57,100 58,101 59,102 60,103 61,102 62,101 63,100 64,99 65,98 66,99 67,100 68,99 69,98 70,99 71,98 72,97 73,96 74,97 75,98 76,97 77,96 78,95 79,94 80,93 81,92 82,93 83,94 84,93 85,94 86,95 87,96 88,95 89,94 90,95 91,96 92,97 93,98 94,97 95,96 96,95 97,96 98,97 99,98 100,99 101,98 102,99 103,98 104,97 105,98 106,97 107,96 108,95 109,96 110,97 111,98 112,97 113,98 114,97 115,98 116,99 117,100 118,101 119,100 120,99 121,98 122,99 123,98 124,99 125,100 126,101 127,102 128,101 129,100 130,101 131,102 132,103 133,104 134,105 135,106 136,107 137,106 138,107 139,108 140,109 141,110 142,111 143,110 144,111 145,110 146,111 147,112 148,111 149,110 150,111 151,112 152,113 153,114 154,115 155,114 156,115 157,114 158,113 159,114 160,115 161,114 162,113 163,112 164,113 165,112 166,113 167,112 168,113 169,114 170,113 171,112 172,111 173,110 174,109 175,108 176,109 177,108 178,109 179,110 180,111 181,112 182,111 183,112 184,111 185,112 186,113 187,112 188,111 189,110 190,111 191,110 192,111 193,110 194,111 195,110 196,109 197,110 198,109 199,108 200,107 201,108 202,107 203,106 204,105 205,104 206,103 207,104 208,103 209,102 210,103 211,104 212,105 213,104 214,105 215,104 216,103 217,102 218,101 219,102 220,101 221,102 222,101 223,100 224,101 225,102 226,101 227,102 228,101 229,102 230,101 231,102 232,101 233,102 234,103 235,104 236,103 237,104 238,103 239,102 240,101 241,100 242,99 243,98 244,97 245,98 246,97 247,98 248,99 249,98 250,99 251,100 252,99 253,100 254,99 255,98 256,99 257,98 258,99 259,98 260,97 261,98 262,97 263,98 264,97 265,96 266,95 267,94 268,93 269,94 270,95 271,96 272,97 273,98 274,99 275,98 276,97 277,96 278,95 279,94 280,93 281,94 282,93 283,94 284,93 285,94 286,95 287,94 288,93 289,92 290,93 291,94 292,95 293,94 294,93 295,92 296,93 297,94 298,95 299,94 300,95 301,94 302,95 303,94 304,95 305,94 306,93 307,94 308,93 309,92 310,91 311,92 312,93 313,92 314,93 315,92 316,93 317,92 318,93 319,94 320,95 321,94 322,95 323,94 324,93 325,92 326,91 327,90 328,89 329,88 330,87 331,86 332,85 333,86 334,87 335,86 336,85 337,86 338,87 339,88 340,89 341,88 342,89 343,88 344,89 345,90 346,91 347,90 348,89 349,90 350,89 351,88 352,87 353,86 354,87 355,86 356,85 357,86 358,85 359,84 360,85 361,84 362,83 363,84 364,85 365,86 366,85 367,84 368,85 369,84 370,85 371,84 372,83 373,82 374,81 375,82 376,81 377,82 378,81 379,82 380,81 381,80 382,79 383,80 384,81 385,80 386,81 387,80 388,81 389,80 390,79 391,78 392,77 393,76 394,77 395,78 396,79 397,80 398,79 399,78 400,77 400,200 " style="fill:rgb(125,20,208);stroke:rgb(25,0,108)"></polygon><polygon points="0,200 1,100 2,99 3,98 4,99 5,100 6,99 7,100 8,101 9,100 10,99 11,100 12,99 13,100 14,101 15,102 16,103 17,104 18,103 19,102 20,101 21,102 22,101 23,100 24,101 25,100 26,101 27,100 28,101 29,102 30,101 31,102 32,103 33,104 34,103 35,102 36,103 37,102 38,101 39,102 40,103 41,104 42,105 43,106 44,105 45,106 46,105 47,104 48,103 49,104 50,105 51,104 52,105 53,106 54,105 55,104 56,105 57,106 58,105 59,106 60,107 61,106 62,105 63,106 64,105 65,104 66,105 67,104 68,105 69,106 70,105 71,106 72,107 73,106 74,105 75,104 76,105 77,106 78,105 79,104 80,103 81,104 82,103 83,102 84,101 85,100 86,99 87,100 88,99 89,100 90,99 91,98 92,97 93,98 94,99 95,100 96,99 97,98 98,99 99,98 100,99 101,98 102,97 103,98 104,97 105,98 106,99 107,100 108,99 109,100 110,101 111,100 112,101 113,102 114,103 115,102 116,101 117,100 118,99 119,100 120,99 121,98 122,99 123,100 124,101 125,102 126,101 127,102 128,103 129,104 130,105 131,106 132,105 133,106 134,105 135,106 136,105 137,104 138,105 139,104 140,103 141,102 142,103 143,102 144,101 145,100 146,99 147,98 148,97 149,96 150,97 151,96 152,95 153,96 154,95 155,96 156,97 157,96 158,95 159,94 160,95 161,94 162,93 163,92 164,91 165,90 166,91 167,90 168,89 169,88 170,89 171,90 172,91 173,92 174,93 175,94 176,95 177,96 178,95 179,94 180,95 181,94 182,93 183,94 184,95 185,96 186,95 187,96 188,95 189,94 190,93 191,94 192,93 193,94 194,95 195,96 196,95 197,96 198,95 199,96 200,97 201,96 202,95 203,96 204,95 205,96 206,97 207,96 208,95 209,96 210,95 211,94 212,95 213,96 214,97 215,98 216,97 217,98 218,99 219,100 220,99 221,100 222,101 223,100 224,101 225,100 226,101 227,102 228,101 229,100 230,99 231,98 232,99 233,100 234,101 235,100 236,101 237,102 238,103 239,102 240,103 241,102 242,101 243,100 244,99 245,98 246,97 247,98 248,99 249,100 250,99 251,100 252,99 253,100 254,99 255,98 256,97 257,96 258,97 259,96 260,97 261,96 262,97 263,98 264,99 265,100 266,101 267,102 268,101 269,100 270,99 271,100 272,101 273,100 274,101 275,102 276,101 277,100 278,99 279,98 280,99 281,98 282,97 283,96 284,97 285,96 286,97 287,98 288,99 289,98 290,97 291,98 292,99 293,98 294,97 295,98 296,99 297,100 298,99 299,98 300,97 301,96 302,97 303,98 304,97 305,96 306,97 307,98 308,97 309,98 310,97 311,98 312,97 313,98 314,97 315,98 316,97 317,96 318,97 319,98 320,99 321,100 322,101 323,100 324,99 325,100 326,101 327,100 328,101 329,100 330,101 331,100 332,99 333,100 334,99 335,100 336,101 337,102 338,103 339,104 340,103 341,102 342,103 343,102 344,101 345,100 346,101 347,102 348,103 349,102 350,103 351,104 352,103 353,104 354,103 355,104 356,103 357,102 358,101 359,100 360,99 361,98 362,97 363,98 364,99 365,100 366,99 367,98 368,99 369,98 370,99 371,100 372,101 373,102 374,101 375,100 376,101 377,102 378,103 379,104 380,105 381,104 382,105 383,106 384,107 385,106 386,105 387,106 388,105 389,104 390,103 391,104 392,105 393,104 394,105 395,106 396,107 397,106 398,107 399,106 400,107 400,200 " style="fill:rgb(197,7,4);stroke:rgb(97,0,0)"></polygon><polygon points="0,200 1,100 2,101 3,102 4,101 5,100 6,101 7,100 8,101 9,100 10,99 11,100 12,99 13,98 14,97 15,98 16,97 17,98 18,99 19,98 20,99 21,98 22,99 23,100 24,101 25,100 26,101 27,102 28,103 29,102 30,101 31,102 32,101 33,100 34,99 35,98 36,97 37,96 38,95 39,94 40,93 41,94 42,93 43,92 44,93 45,94 46,93 47,94 48,95 49,94 50,93 51,94 52,93 53,92 54,93 55,92 56,93 57,92 58,91 59,90 60,89 61,90 62,89 63,90 64,89 65,90 66,91 67,90 68,89 69,88 70,89 71,90 72,89 73,90 74,89 75,90 76,91 77,90 78,91 79,92 80,93 81,92 82,93 83,94 84,95 85,94 86,95 87,96 88,97 89,98 90,97 91,96 92,95 93,96 94,97 95,96 96,97 97,96 98,95 99,96 100,95 101,96 102,95 103,96 104,95 105,96 106,97 107,98 108,97 109,96 110,97 111,98 112,99 113,98 114,99 115,98 116,97 117,96 118,95 119,96 120,97 121,96 122,97 123,98 124,97 125,96 126,95 127,94 128,95 129,94 130,95 131,96 132,97 133,98 134,99 135,100 136,99 137,98 138,97 139,98 140,99 141,100 142,99 143,100 144,101 145,100 146,99 147,100 148,101 149,102 150,101 151,100 152,101 153,100 154,99 155,100 156,99 157,98 158,99 159,100 160,99 161,100 162,101 163,100 164,101 165,102 166,103 167,104 168,103 169,104 170,105 171,104 172,103 173,102 174,101 175,100 176,101 177,100 178,101 179,102 180,103 181,102 182,103 183,104 184,105 185,106 186,105 187,106 188,107 189,108 190,107 191,106 192,107 193,106 194,107 195,106 196,105 197,104 198,105 199,104 200,105 201,106 202,107 203,106 204,107 205,106 206,107 207,106 208,107 209,108 210,107 211,108 212,109 213,108 214,107 215,108 216,107 217,108 218,109 219,110 220,109 221,108 222,107 223,106 224,105 225,106 226,107 227,108 228,107 229,106 230,105 231,106 232,105 233,106 234,107 235,106 236,107 237,106 238,105 239,106 240,107 241,106 242,105 243,106 244,105 245,104 246,105 247,104 248,105 249,104 250,103 251,104 252,105 253,106 254,107 255,108 256,109 257,108 258,107 259,108 260,107 261,108 262,109 263,108 264,107 265,106 266,105 267,106 268,107 269,106 270,105 271,104 272,105 273,106 274,107 275,108 276,109 277,108 278,109 279,110 280,111 281,112 282,111 283,110 284,111 285,112 286,111 287,112 288,111 289,112 290,113 291,112 292,111 293,112 294,111 295,112 296,113 297,114 298,115 299,116 300,115 301,114 302,113 303,112 304,113 305,114 306,115 307,116 308,115 309,116 310,117 311,116 312,117 313,116 314,115 315,116 316,115 317,116 318,117 319,116 320,115 321,116 322,115 323,114 324,113 325,112 326,113 327,112 328,111 329,110 330,109 331,108 332,109 333,108 334,109 335,108 336,107 337,106 338,107 339,108 340,109 341,108 342,107 343,108 344,107 345,106 346,105 347,106 348,105 349,104 350,103 351,104 352,103 353,102 354,101 355,102 356,101 357,102 358,103 359,104 360,105 361,106 362,107 363,108 364,107 365,108 366,109 367,108 368,109 369,110 370,109 371,108 372,109 373,110 374,111 375,112 376,113 377,112 378,113 379,114 380,113 381,114 382,113 383,112 384,111 385,110 386,111 387,112 388,113 389,114 390,115 391,114 392,115 393,114 394,113 395,114 396,115 397,116 398,115 399,114 400,115 400,200 " style="fill:rgb(249,23,164);stroke:rgb(149,0,64)"></polygon><polygon points="0,200 1,100 2,99 3,100 4,101 5,102 6,101 7,100 8,99 9,100 10,101 11,100 12,99 13,100 14,101 15,102 16,103 17,102 18,101 19,102 20,103 21,102 22,101 23,100 24,101 25,100 26,99 27,98 28,99 29,98 30,97 31,96 32,95 33,94 34,95 35,96 36,97 37,96 38,97 39,96 40,95 41,96 42,95 43,94 44,95 45,96 46,95 47,94 48,95 49,94 50,95 51,94 52,93 53,94 54,93 55,94 56,95 57,96 58,97 59,96 60,97 61,98 62,99 63,100 64,99 65,98 66,97 67,98 68,99 69,98 70,97 71,98 72,97 73,96 74,97 75,98 76,99 77,100 78,101 79,102 80,103 81,104 82,103 83,104 84,103 85,102 86,103 87,102 88,103 89,102 90,101 91,100 92,101 93,100 94,99 95,98 96,99 97,98 98,99 99,100 100,99 101,100 102,101 103,100 104,99 105,98 106,99 107,98 108,99 109,100 110,99 111,98 112,99 113,100 114,99 115,100 116,101 117,102 118,103 119,104 120,103 121,102 122,103 123,104 124,103 125,104 126,105 127,106 128,107 129,106 130,107 131,108 132,107 133,106 134,107 135,108 136,109 137,110 138,109 139,110 140,109 141,108 142,109 143,110 144,109 145,110 146,109 147,110 148,109 149,108 150,107 151,106 152,107 153,108 154,109 155,110 156,109 157,108 158,107 159,106 160,105 161,104 162,105 163,104 164,103 165,102 166,101 167,102 168,103 169,104 170,103 171,104 172,103 173,102 174,103 175,104 176,105 177,106 178,105 179,106 180,105 181,104 182,103 183,102 184,101 185,102 186,101 187,102 188,101 189,102 190,101 191,102 192,101 193,100 194,101 195,102 196,101 197,100 198,99 199,98 200,99 201,100 202,101 203,102 204,103 205,104 206,105 207,106 208,107 209,106 210,107 211,108 212,109 213,108 214,107 215,106 216,105 217,104 218,105 219,106 220,105 221,106 222,107 223,106 224,107 225,108 226,107 227,106 228,105 229,106 230,105 231,106 232,105 233,106 234,107 235,106 236,105 237,104 238,105 239,104 240,103 241,102 242,101 243,102 244,101 245,102 246,103 247,102 248,103 249,102 250,103 251,102 252,103 253,102 254,103 255,104 256,105 257,106 258,107 259,108 260,107 261,106 262,105 263,106 264,107 265,106 266,107 267,108 268,107 269,108 270,107 271,106 272,105 273,106 274,105 275,106 276,107 277,106 278,107 279,108 280,107 281,106 282,107 283,108 284,107 285,106 286,107 287,106 288,105 289,104 290,105 291,106 292,105 293,106 294,105 295,106 296,105 297,104 298,105 299,106 300,105 301,106 302,107 303,106 304,105 305,106 306,105 307,104 308,103 309,104 310,105 311,104 312,105 313,106 314,105 315,104 316,105 317,106 318,107 319,106 320,107 321,106 322,105 323,104 324,103 325,104 326,105 327,106 328,107 329,108 330,109 331,110 332,109 333,108 334,107 335,106 336,107 337,108 338,109 339,108 340,107 341,106 342,105 343,104 344,103 345,102 346,103 347,102 348,101 349,102 350,103 351,102 352,101 353,100 354,99 355,98 356,97 357,96 358,95 359,96 360,95 361,94 362,93 363,94 364,95 365,94 366,93 367,94 368,93 369,94 370,93 371,94 372,95 373,96 374,97 375,96 376,95 377,94 378,95 379,96 380,97 381,98 382,99 383,98 384,99 385,98 386,97 387,96 388,97 389,96 390,97 391,98 392,99 393,100 394,101 395,102 396,101 397,100 398,101 399,100 400,101 400,200 " style="fill:rgb(195,252,222);stroke:rgb(95,152,122)"></polygon><polygon points="0,200 1,100 2,101 3,100 4,101 5,102 6,103 7,102 8,101 9,102 10,103 11,102 12,103 13,104 14,105 15,104 16,105 17,104 18,103 19,104 20,105 21,104 22,103 23,104 24,105 25,104 26,105 27,106 28,107 29,108 30,107 31,106 32,107 33,108 34,109 35,110 36,109 37,108 38,107 39,108 40,109 41,110 42,111 43,112 44,111 45,112 46,113 47,112 48,113 49,112 50,113 51,112 52,113 53,112 54,113 55,112 56,113 57,114 58,113 59,114 60,113 61,114 62,113 63,112 64,111 65,112 66,111 67,110 68,111 69,110 70,109 71,108 72,109 73,110 74,111 75,110 76,111 77,110 78,111 79,110 80,111 81,110 82,109 83,110 84,109 85,108 86,109 87,110 88,111 89,112 90,113 91,112 92,111 93,110 94,111 95,110 96,109 97,110 98,109 99,110 100,111 101,110 102,109 103,108 104,109 105,110 106,109 107,108 108,109 109,110 110,111 111,110 112,111 113,112 114,113 115,112 116,113 117,114 118,113 119,112 120,113 121,114 122,113 123,112 124,111 125,110 126,111 127,112 128,111 129,110 130,109 131,110 132,109 133,110 134,109 135,110 136,111 137,112 138,113 139,112 140,111 141,112 142,113 143,112 144,113 145,114 146,113 147,114 148,113 149,114 150,115 151,114 152,115 153,114 154,115 155,114 156,115 157,116 158,117 159,116 160,115 161,116 162,117 163,116 164,115 165,114 166,113 167,114 168,113 169,114 170,113 171,114 172,115 173,116 174,117 175,116 176,115 177,114 178,113 179,114 180,115 181,114 182,115 183,116 184,117 185,116 186,115 187,114 188,115 189,116 190,115 191,116 192,117 193,118 194,119 195,120 196,121 197,122 198,121 199,122 200,123 201,122 202,121 203,122 204,121 205,122 206,121 207,120 208,121 209,120 210,121 211,120 212,121 213,120 214,121 215,120 216,121 217,122 218,121 219,122 220,121 221,120 222,119 223,120 224,121 225,120 226,121 227,122 228,121 229,120 230,121 231,122 232,121 233,120 234,121 235,120 236,119 237,120 238,121 239,122 240,123 241,122 242,123 243,124 244,123 245,124 246,125 247,126 248,125 249,124 250,123 251,124 252,125 253,124 254,123 255,124 256,123 257,124 258,123 259,124 260,123 261,124 262,125 263,124 264,123 265,122 266,121 267,122 268,121 269,122 270,121 271,122 272,121 273,120 274,121 275,122 276,123 277,122 278,123 279,124 280,123 281,122 282,123 283,122 284,121 285,120 286,119 287,118 288,117 289,118 290,119 291,118 292,117 293,118 294,119 295,118 296,117 297,118 298,119 299,118 300,117 301,116 302,115 303,114 304,115 305,114 306,115 307,116 308,117 309,118 310,117 311,118 312,119 313,118 314,117 315,116 316,117 317,118 318,117 319,118 320,117 321,116 322,115 323,116 324,115 325,116 326,117 327,118 328,119 329,118 330,119 331,120 332,119 333,118 334,119 335,120 336,119 337,120 338,121 339,122 340,121 341,120 342,119 343,118 344,119 345,118 346,117 347,116 348,115 349,116 350,117 351,118 352,117 353,116 354,115 355,116 356,115 357,116 358,115 359,114 360,113 361,112 362,111 363,110 364,109 365,110 366,111 367,112 368,111 369,110 370,111 371,110 372,111 373,110 374,111 375,112 376,113 377,112 378,111 379,112 380,111 381,110 382,111 383,110 384,111 385,112 386,113 387,114 388,115 389,116 390,115 391,116 392,117 393,116 394,115 395,116 396,117 397,116 398,117 399,118 400,119 400,200 " style="fill:rgb(199,14,90);stroke:rgb(99,0,0)"></polygon><polygon points="0,200 1,100 2,99 3,98 4,99 5,98 6,99 7,98 8,99 9,100 10,99 11,100 12,99 13,100 14,99 15,98 16,99 17,98 18,99 19,100 20,101 21,100 22,101 23,102 24,103 25,104 26,105 27,106 28,107 29,108 30,109 31,110 32,111 33,112 34,111 35,110 36,111 37,112 38,111 39,112 40,113 41,114 42,115 43,114 44,113 45,114 46,115 47,114 48,115 49,116 50,117 51,116 52,117 53,116 54,117 55,116 56,117 57,118 58,119 59,118 60,119 61,118 62,117 63,118 64,117 65,116 66,117 67,118 68,119 69,120 70,119 71,120 72,119 73,118 74,117 75,118 76,119 77,118 78,119 79,120 80,121 81,120 82,121 83,122 84,123 85,124 86,125 87,124 88,123 89,124 90,125 91,126 92,127 93,126 94,127 95,126 96,127 97,128 98,127 99,128 100,127 101,128 102,127 103,128 104,129 105,130 106,131 107,132 108,131 109,132 110,133 111,134 112,135 113,136 114,137 115,136 116,137 117,138 118,139 119,140 120,139 121,138 122,137 123,136 124,135 125,136 126,137 127,138 128,137 129,138 130,139 131,140 132,141 133,142 134,141 135,142 136,141 137,140 138,141 139,142 140,141 141,142 142,143 143,142 144,143 145,144 146,143 147,142 148,143 149,144 150,143 151,142 152,143 153,142 154,143 155,144 156,145 157,144 158,145 159,146 160,147 161,148 162,149 163,150 164,151 165,152 166,153 167,154 168,153 169,154 170,153 171,152 172,153 173,154 174,155 175,154 176,155 177,154 178,155 179,156 180,157 181,158 182,159 183,158 184,157 185,156 186,155 187,154 188,153 189,154 190,153 191,152 192,153 193,154 194,155 195,154 196,153 197,152 198,151 199,152 200,151 201,150 202,151 203,152 204,153 205,152 206,153 207,154 208,155 209,154 210,153 211,152 212,153 213,154 214,153 215,152 216,153 217,152 218,151 219,150 220,149 221,148 222,149 223,148 224,147 225,146 226,145 227,144 228,145 229,146 230,145 231,144 232,145 233,144 234,145 235,144 236,143 237,144 238,145 239,146 240,145 241,146 242,145 243,146 244,147 245,148 246,147 247,146 248,147 249,146 250,147 251,146 252,147 253,148 254,147 255,148 256,147 257,148 258,149 259,150 260,149 261,150 262,151 263,150 264,151 265,150 266,151 267,152 268,151 269,150 270,151 271,152 272,151 273,152 274,153 275,152 276,153 277,152 278,153 279,152 280,153 281,152 282,151 283,152 284,153 285,152 286,151 287,150 288,151 289,150 290,151 291,152 292,151 293,150 294,151 295,150 296,151 297,152 298,151 299,150 300,149 301,148 302,149 303,148 304,149 305,148 306,149 307,148 308,149 309,150 310,149 311,150 312,151 313,150 314,149 315,148 316,147 317,146 318,147 319,148 320,149 321,148 322,147 323,146 324,147 325,148 326,147 327,146 328,145 329,146 330,145 331,144 332,145 333,144 334,143 335,142 336,141 337,140 338,139 339,138 340,137 341,138 342,137 343,138 344,137 345,138 346,139 347,140 348,141 349,142 350,141 351,142 352,141 353,140 354,141 355,142 356,143 357,144 358,143 359,142 360,141 361,142 362,143 363,144 364,145 365,144 366,145 367,146 368,145 369,144 370,145 371,144 372,145 373,146 374,145 375,146 376,145 377,146 378,147 379,148 380,149 381,150 382,149 383,150 384,149 385,148 386,149 387,150 388,151 389,152 390,153 391,154 392,155 393,154 394,155 395,154 396,153 397,154 398,153 399,152 400,153 400,200 " style="fill:rgb(223,94,54);stroke:rgb(123,0,0)"></polygon><polygon points="0,200 1,100 2,99 3,98 4,99 5,98 6,97 7,96 8,97 9,96 10,95 11,94 12,95 13,94 14,93 15,94 16,93 17,92 18,93 19,94 20,95 21,96 22,97 23,98 24,97 25,96 26,95 27,96 28,95 29,96 30,95 31,96 32,97 33,96 34,97 35,96 36,95 37,96 38,95 39,94 40,93 41,92 42,93 43,92 44,91 45,92 46,91 47,92 48,91 49,90 50,91 51,90 52,91 53,90 54,89 55,90 56,89 57,88 58,87 59,86 60,85 61,86 62,87 63,88 64,87 65,88 66,89 67,88 68,89 69,90 70,91 71,92 72,91 73,92 74,91 75,90 76,89 77,90 78,91 79,90 80,91 81,90 82,91 83,92 84,91 85,92 86,91 87,90 88,91 89,92 90,91 91,92 92,93 93,94 94,93 95,92 96,91 97,92 98,91 99,90 100,91 101,90 102,89 103,88 104,87 105,88 106,89 107,88 108,87 109,88 110,87 111,88 112,89 113,88 114,87 115,86 116,85 117,86 118,85 119,84 120,83 121,82 122,81 123,82 124,81 125,82 126,83 127,82 128,81 129,82 130,83 131,82 132,81 133,80 134,79 135,80 136,79 137,78 138,79 139,80 140,81 141,82 142,83 143,82 144,81 145,82 146,81 147,80 148,81 149,80 150,79 151,78 152,77 153,78 154,77 155,78 156,79 157,80 158,81 159,80 160,81 161,80 162,81 163,80 164,81 165,80 166,81 167,82 168,81 169,80 170,81 171,80 172,79 173,78 174,79 175,78 176,77 177,78 178,79 179,80 180,79 181,78 182,77 183,76 184,77 185,78 186,79 187,78 188,77 189,78 190,77 191,76 192,77 193,78 194,79 195,78 196,79 197,78 198,79 199,80 200,81 201,80 202,79 203,80 204,79 205,78 206,77 207,76 208,77 209,78 210,77 211,76 212,77 213,78 214,77 215,78 216,79 217,80 218,79 219,80 220,81 221,82 222,81 223,80 224,81 225,82 226,81 227,80 228,81 229,80 230,79 231,80 232,79 233,80 234,79 235,80 236,81 237,80 238,81 239,82 240,81 241,82 242,83 243,82 244,83 245,82 246,83 247,82 248,81 249,82 250,83 251,84 252,83 253,84 254,83 255,84 256,85 257,84 258,83 259,82 260,81 261,82 262,81 263,82 264,83 265,84 266,85 267,84 268,85 269,86 270,87 271,86 272,85 273,86 274,87 275,86 276,85 277,86 278,87 279,88 280,89 281,88 282,87 283,86 284,85 285,84 286,85 287,86 288,87 289,86 290,85 291,86 292,85 293,86 294,87 295,88 296,89 297,88 298,89 299,88 300,89 301,90 302,89 303,90 304,89 305,90 306,91 307,90 308,89 309,88 310,87 311,88 312,87 313,86 314,87 315,88 316,89 317,88 318,89 319,88 320,89 321,90 322,91 323,90 324,91 325,92 326,91 327,92 328,91 329,92 330,93 331,94 332,95 333,96 334,97 335,96 336,97 337,96 338,95 339,96 340,97 341,98 342,99 343,98 344,99 345,100 346,99 347,100 348,101 349,100 350,101 351,102 352,103 353,104 354,103 355,104 356,103 357,102 358,103 359,102 360,103 361,104 362,105 363,106 364,107 365,108 366,109 367,108 368,107 369,106 370,107 371,106 372,107 373,108 374,107 375,106 376,105 377,106 378,105 379,106 380,107 381,108 382,107 383,106 384,107 385,106 386,105 387,106 388,105 389,106 390,107 391,106 392,105 393,106 394,107 395,106 396,107 397,108 398,107 399,106 400,107 400,200 " style="fill:rgb(202,240,62);stroke:rgb(102,140,0)"></polygon><polygon points="0,200 1,100 2,101 3,100 4,99 5,100 6,101 7,102 8,103 9,102 10,103 11,104 12,103 13,102 14,103 15,102 16,103 17,104 18,103 19,104 20,103 21,104 22,105 23,104 24,105 25,106 26,107 27,108 28,109 29,108 30,109 31,108 32,107 33,106 34,105 35,104 36,105 37,106 38,105 39,106 40,107 41,108 42,107 43,108 44,107 45,108 46,109 47,108 48,109 49,108 50,107 51,106 52,105 53,104 54,105 55,106 56,107 57,108 58,107 59,108 60,109 61,110 62,109 63,108 64,109 65,108 66,107 67,108 68,107 69,106 70,105 71,104 72,105 73,104 74,103 75,104 76,103 77,102 78,101 79,102 80,101 81,102 82,103 83,104 84,105 85,106 86,105 87,106 88,107 89,108 90,107 91,108 92,109 93,110 94,111 95,110 96,109 97,110 98,109 99,108 100,107 101,108 102,109 103,110 104,109 105,108 106,109 107,108 108,109 109,110 110,109 111,108 112,109 113,110 114,109 115,108 116,109 117,110 118,111 119,112 120,113 121,114 122,115 123,116 124,115 125,114 126,113 127,112 128,111 129,112 130,113 131,112 132,113 133,112 134,111 135,110 136,109 137,108 138,107 139,106 140,105 141,104 142,105 143,106 144,107 145,106 146,105 147,104 148,103 149,104 150,103 151,102 152,103 153,102 154,101 155,100 156,101 157,100 158,101 159,100 160,99 161,98 162,97 163,96 164,97 165,96 166,97 167,98 168,99 169,98 170,97 171,96 172,95 173,96 174,95 175,94 176,95 177,96 178,97 179,96 180,97 181,98 182,97 183,96 184,97 185,98 186,97 187,96 188,97 189,96 190,95 191,94 192,95 193,96 194,97 195,96 196,97 197,98 198,99 199,100 200,101 201,102 202,101 203,102 204,101 205,102 206,101 207,102 208,103 209,104 210,103 211,104 212,103 213,104 214,105 215,106 216,107 217,108 218,107 219,106 220,105 221,106 222,107 223,108 224,107 225,108 226,109 227,110 228,109 229,108 230,107 231,108 232,109 233,110 234,109 235,110 236,111 237,112 238,113 239,112 240,111 241,110 242,111 243,112 244,111 245,110 246,109 247,108 248,109 249,108 250,109 251,110 252,109 253,110 254,111 255,110 256,109 257,108 258,107 259,106 260,105 261,106 262,105 263,104 264,105 265,106 266,105 267,106 268,107 269,108 270,109 271,110 272,111 273,110 274,111 275,110 276,111 277,110 278,111 279,112 280,113 281,114 282,113 283,112 284,111 285,112 286,113 287,114 288,113 289,114 290,113 291,114 292,115 293,114 294,115 295,114 296,113 297,114 298,115 299,114 300,115 301,116 302,115 303,114 304,113 305,114 306,113 307,112 308,113 309,114 310,115 311,114 312,115 313,116 314,117 315,118 316,119 317,118 318,117 319,116 320,115 321,114 322,113 323,112 324,111 325,110 326,111 327,112 328,113 329,112 330,113 331,112 332,113 333,114 334,115 335,116 336,115 337,116 338,117 339,116 340,117 341,116 342,117 343,116 344,117 345,116 346,117 347,116 348,115 349,116 350,115 351,114 352,113 353,114 354,115 355,114 356,113 357,114 358,113 359,114 360,113 361,114 362,115 363,116 364,117 365,116 366,115 367,116 368,115 369,114 370,115 371,114 372,115 373,114 374,113 375,114 376,113 377,112 378,113 379,114 380,115 381,116 382,117 383,118 384,117 385,116 386,117 387,116 388,115 389,114 390,113 391,114 392,113 393,114 394,115 395,114 396,113 397,112 398,111 399,110 400,111 400,200 " style="fill:rgb(101,66,58);stroke:rgb(1,0,0)"></polygon><polygon points="0,200 1,100 2,99 3,98 4,97 5,96 6,95 7,94 8,95 9,96 10,95 11,94 12,93 13,92 14,93 15,94 16,95 17,94 18,93 19,92 20,93 21,94 22,93 23,94 24,93 25,92 26,93 27,94 28,95 29,94 30,93 31,94 32,95 33,94 34,93 35,94 36,95 37,96 38,97 39,98 40,99 41,100 42,99 43,98 44,99 45,98 46,97 47,96 48,95 49,96 50,97 51,98 52,99 53,98 54,97 55,96 56,97 57,96 58,95 59,96 60,97 61,98 62,97 63,96 64,95 65,94 66,93 67,92 68,91 69,92 70,91 71,90 72,89 73,88 74,89 75,88 76,87 77,86 78,85 79,86 80,87 81,88 82,87 83,88 84,89 85,88 86,87 87,88 88,89 89,88 90,89 91,88 92,87 93,86 94,87 95,88 96,87 97,88 98,87 99,86 100,87 101,88 102,89 103,90 104,91 105,92 106,91 107,90 108,89 109,88 110,89 111,88 112,89 113,88 114,87 115,86 116,87 117,88 118,89 119,90 120,89 121,88 122,87 123,86 124,87 125,88 126,87 127,88 128,87 129,86 130,87 131,86 132,87 133,86 134,87 135,86 136,87 137,88 138,87 139,88 140,87 141,88 142,87 143,86 144,85 145,84 146,83 147,82 148,81 149,80 150,79 151,80 152,81 153,82 154,81 155,82 156,83 157,82 158,83 159,84 160,83 161,82 162,83 163,84 164,83 165,82 166,81 167,80 168,79 169,78 170,79 171,78 172,79 173,80 174,79 175,78 176,77 177,78 178,77 179,76 180,75 181,74 182,73 183,74 184,75 185,74 186,73 187,74 188,73 189,72 190,71 191,72 192,71 193,72 194,71 195,72 196,73 197,74 198,73 199,72 200,71 201,70 202,71 203,72 204,73 205,74 206,73 207,74 208,75 209,76 210,75 211,74 212,75 213,74 214,75 215,74 216,75 217,74 218,75 219,76 220,77 221,78 222,79 223,80 224,81 225,82 226,81 227,80 228,81 229,82 230,83 231,82 232,81 233,82 234,81 235,82 236,83 237,84 238,85 239,86 240,85 241,84 242,83 243,84 244,83 245,84 246,83 247,84 248,85 249,86 250,85 251,84 252,83 253,82 254,81 255,82 256,83 257,82 258,83 259,82 260,81 261,80 262,81 263,80 264,79 265,80 266,79 267,80 268,79 269,78 270,77 271,78 272,77 273,78 274,79 275,78 276,79 277,78 278,79 279,78 280,77 281,76 282,77 283,78 284,77 285,76 286,77 287,78 288,79 289,78 290,77 291,78 292,79 293,78 294,77 295,78 296,79 297,78 298,79 299,80 300,81 301,82 302,81 303,80 304,81 305,80 306,79 307,78 308,79 309,80 310,79 311,80 312,79 313,80 314,79 315,78 316,79 317,80 318,81 319,80 320,81 321,82 322,83 323,84 324,85 325,86 326,87 327,86 328,85 329,86 330,85 331,84 332,83 333,84 334,83 335,82 336,83 337,84 338,83 339,82 340,83 341,82 342,83 343,82 344,81 345,82 346,83 347,84 348,83 349,84 350,83 351,82 352,81 353,82 354,81 355,82 356,83 357,84 358,83 359,84 360,85 361,86 362,87 363,88 364,87 365,88 366,87 367,86 368,85 369,84 370,85 371,84 372,85 373,86 374,87 375,88 376,87 377,86 378,87 379,88 380,89 381,88 382,87 383,86 384,85 385,86 386,85 387,86 388,87 389,86 390,85 391,84 392,85 393,84 394,83 395,84 396,83 397,82 398,83 399,82 400,83 400,200 " style="fill:rgb(94,171,225);stroke:rgb(0,71,125)"></polygon><polygon points="0,200 1,100 2,99 3,100 4,99 5,98 6,97 7,98 8,97 9,96 10,97 11,96 12,95 13,96 14,97 15,98 16,97 17,96 18,97 19,96 20,97 21,96 22,95 23,94 24,95 25,96 26,95 27,94 28,93 29,92 30,91 31,92 32,91 33,90 34,89 35,90 36,91 37,90 38,89 39,88 40,87 41,88 42,87 43,86 44,87 45,88 46,87 47,86 48,85 49,84 50,85 51,86 52,87 53,86 54,85 55,86 56,85 57,86 58,85 59,86 60,87 61,88 62,87 63,88 64,89 65,88 66,87 67,88 68,89 69,88 70,87 71,86 72,87 73,88 74,87 75,88 76,87 77,88 78,87 79,86 80,85 81,84 82,85 83,84 84,85 85,84 86,85 87,84 88,85 89,84 90,83 91,84 92,83 93,82 94,81 95,82 96,81 97,80 98,81 99,80 100,79 101,80 102,79 103,80 104,81 105,82 106,81 107,80 108,79 109,80 110,79 111,80 112,81 113,82 114,81 115,80 116,81 117,80 118,81 119,80 120,81 121,80 122,81 123,82 124,83 125,84 126,83 127,84 128,83 129,84 130,85 131,86 132,85 133,86 134,85 135,84 136,83 137,82 138,81 139,80 140,79 141,78 142,77 143,76 144,75 145,74 146,73 147,74 148,75 149,74 150,73 151,74 152,73 153,72 154,71 155,72 156,73 157,74 158,75 159,74 160,73 161,74 162,73 163,74 164,73 165,74 166,75 167,76 168,75 169,76 170,77 171,76 172,77 173,78 174,77 175,76 176,75 177,74 178,75 179,76 180,75 181,74 182,73 183,72 184,71 185,72 186,71 187,70 188,69 189,70 190,69 191,68 192,69 193,70 194,69 195,70 196,71 197,70 198,71 199,70 200,69 201,68 202,69 203,68 204,67 205,66 206,67 207,66 208,65 209,66 210,67 211,68 212,67 213,68 214,69 215,70 216,71 217,70 218,69 219,70 220,71 221,72 222,73 223,72 224,73 225,74 226,75 227,76 228,75 229,74 230,73 231,72 232,71 233,72 234,73 235,72 236,71 237,72 238,73 239,72 240,73 241,74 242,75 243,74 244,73 245,72 246,71 247,70 248,69 249,68 250,69 251,68 252,67 253,66 254,67 255,66 256,65 257,66 258,67 259,68 260,67 261,68 262,67 263,68 264,67 265,66 266,65 267,66 268,65 269,64 270,65 271,66 272,67 273,66 274,65 275,66 276,67 277,68 278,67 279,68 280,69 281,68 282,67 283,68 284,69 285,70 286,71 287,72 288,71 289,70 290,69 291,70 292,71 293,72 294,71 295,72 296,73 297,72 298,73 299,72 300,71 301,70 302,71 303,72 304,71 305,70 306,71 307,72 308,73 309,72 310,71 311,72 312,71 313,72 314,73 315,72 316,73 317,72 318,73 319,72 320,73 321,74 322,75 323,74 324,73 325,72 326,73 327,74 328,73 329,72 330,71 331,72 332,73 333,72 334,73 335,72 336,73 337,72 338,71 339,72 340,71 341,70 342,69 343,70 344,71 345,70 346,71 347,70 348,71 349,70 350,71 351,72 352,71 353,72 354,71 355,72 356,71 357,70 358,69 359,68 360,67 361,66 362,65 363,64 364,65 365,66 366,67 367,68 368,67 369,68 370,67 371,66 372,67 373,66 374,65 375,66 376,67 377,68 378,67 379,68 380,67 381,68 382,67 383,66 384,67 385,68 386,69 387,70 388,69 389,68 390,67 391,66 392,65 393,64 394,63 395,64 396,65 397,66 398,65 399,64 400,63 400,200 " style="fill:rgb(80,194,188);stroke:rgb(0,94,88)"></polygon></svg>